# File created by Blade
# Date/Time:  Tue Sep 30 19:36:36 2014
#---------------------------------------------------------
:version 1.10
:name HOM
:units
  mass 1.0
  length 1.000000
  angle deg
:documentation
     Acclaim Skeleton File
:root
   axis xyz
   order TX TY TZ RX RY RZ
   position 0.000000 0.000000 0.000000
   orientation 0 0 0
:bonedata
   begin
      id 1
      name Spine_dum
      direction 0.000000 1.000000 0.000000
      length 3.241213
      axis 0.0 0.0 0.0 xyz
   end
   begin
      id 2
      name LeftUpLeg_dum
      direction 1.000000 0.000000 0.000000
      length 3.434019
      axis 0.0 0.0 0.0 xyz
   end
   begin
      id 3
      name RightUpLeg_dum
      direction -1.000000 0.000000 0.000000
      length 3.434019
      axis 0.0 0.0 0.0 xyz
   end
   begin
      id 4
      name Spine
      direction 0.000000 1.000000 0.000000
      length 0.000000
      axis 0.0 0.0 0.0 xyz
      dof rx ry rz
   end
   begin
      id 5
      name Spine_dum1
      direction 0.000000 1.000000 0.000000
      length 18.382958
      axis 0.0 0.0 0.0 xyz
   end
   begin
      id 6
      name Spine_dum2
      direction 0.000000 1.000000 0.000000
      length 12.828261
      axis 0.0 0.0 0.0 xyz
   end
   begin
      id 7
      name Spine_dum3
      direction 0.000000 1.000000 0.000000
      length 12.828261
      axis 0.0 0.0 0.0 xyz
   end
   begin
      id 8
      name Head
      direction 0.000000 1.000000 0.000000
      length 4.527550
      axis 0.0 0.0 0.0 xyz
      dof rx ry rz
   end
   begin
      id 9
      name LeftShoulder
      direction 1.000000 0.000000 0.000000
      length 7.748055
      axis 0.0 0.0 -90.0 xyz
      dof rx ry rz
   end
   begin
      id 10
      name LeftArm
      direction 1.000000 0.000000 0.000000
      length 10.635614
      axis 0.0 0.0 -90.0 xyz
      dof rx ry rz
   end
   begin
      id 11
      name LeftForeArm
      direction 1.000000 0.000000 0.000000
      length 8.346755
      axis 0.0 0.0 -90.0 xyz
      dof ry rz rx
   end
   begin
      id 12
      name LeftHand
      direction 0.000000 0.000000 0.000000
      length 0.000000
      axis 0.0 0.0 -90.0 xyz
      dof rx ry rz
   end
   begin
      id 13
      name LeftHand_dum1
      direction 0.000000 0.000000 0.000000
      length 0.000000
      axis 0.0 0.0 -90.0 xyz
   end
   begin
      id 14
      name LeftHand_dum2
      direction 1.000000 0.000000 0.000000
      length 3.937000
      axis 0.0 0.0 -90.0 xyz
   end
   begin
      id 15
      name LeftHandThumb1
      direction 0.000000 0.000000 1.000000
      length 3.937000
      axis 0.0 0.0 -90.0 xyz
      dof rx rz ry
   end
   begin
      id 16
      name RightShoulder
      direction -1.000000 0.000000 0.000000
      length 7.748055
      axis 0.0 0.0 90.0 xyz
      dof rx ry rz
   end
   begin
      id 17
      name RightArm
      direction -1.000000 0.000000 0.000000
      length 10.635614
      axis 0.0 0.0 90.0 xyz
      dof rx ry rz
   end
   begin
      id 18
      name RightForeArm
      direction -1.000000 0.000000 0.000000
      length 8.346755
      axis 0.0 0.0 90.0 xyz
      dof ry rz rx
   end
   begin
      id 19
      name RightHand
      direction 0.000000 0.000000 0.000000
      length 0.000000
      axis 0.0 0.0 90.0 xyz
      dof rx ry rz
   end
   begin
      id 20
      name RightHand_dum1
      direction 0.000000 0.000000 0.000000
      length 0.000000
      axis 0.0 0.0 90.0 xyz
   end
   begin
      id 21
      name RightHand_dum2
      direction -1.000000 0.000000 0.000000
      length 3.937000
      axis 0.0 0.0 90.0 xyz
   end
   begin
      id 22
      name RightHandThumb1
      direction 0.000000 0.000000 1.000000
      length 3.937000
      axis 0.0 0.0 90.0 xyz
      dof rx rz ry
   end
   begin
      id 23
      name LeftUpLeg
      direction 0.000000 -1.000000 0.000000
      length 15.713025
      axis 0.0 0.0 0.0 xyz
      dof rx ry rz
   end
   begin
      id 24
      name LeftLeg
      direction 0.000000 -1.000000 0.000000
      length 14.435119
      axis 0.0 0.0 0.0 xyz
      dof rx ry rz
   end
   begin
      id 25
      name LeftFoot
      direction 0.000000 -0.258819 0.965926
      length 4.938895
      axis 15.0 0.0 0.0 xyz
      dof rx ry rz
   end
   begin
      id 26
      name LeftToeBase
      direction 0.000000 0.000000 1.000000
      length 2.952750
      axis 0.0 0.0 0.0 xyz
      dof rx ry rz
   end
   begin
      id 27
      name RightUpLeg
      direction 0.000000 -1.000000 0.000000
      length 15.713025
      axis 0.0 0.0 0.0 xyz
      dof rx ry rz
   end
   begin
      id 28
      name RightLeg
      direction 0.000000 -1.000000 0.000000
      length 14.435119
      axis 0.0 0.0 0.0 xyz
      dof rx ry rz
   end
   begin
      id 29
      name RightFoot
      direction 0.000000 -0.258819 0.965926
      length 4.938895
      axis 15.0 0.0 0.0 xyz
      dof rx ry rz
   end
   begin
      id 30
      name RightToeBase
      direction 0.000000 0.000000 1.000000
      length 2.952750
      axis 0.0 0.0 0.0 xyz
      dof rx ry rz
   end
:hierarchy
   begin
      root Spine_dum LeftUpLeg_dum RightUpLeg_dum
      Spine_dum Spine
      LeftUpLeg_dum LeftUpLeg
      RightUpLeg_dum RightUpLeg
      Spine Spine_dum1 Spine_dum2 Spine_dum3
      Spine_dum1 Head
      Spine_dum2 LeftShoulder
      Spine_dum3 RightShoulder
      LeftShoulder LeftArm
      LeftArm LeftForeArm
      LeftForeArm LeftHand
      LeftHand LeftHand_dum1 LeftHand_dum2
      LeftHand_dum1 LeftHandThumb1
      RightShoulder RightArm
      RightArm RightForeArm
      RightForeArm RightHand
      RightHand RightHand_dum1 RightHand_dum2
      RightHand_dum1 RightHandThumb1
      LeftUpLeg LeftLeg
      LeftLeg LeftFoot
      LeftFoot LeftToeBase
      RightUpLeg RightLeg
      RightLeg RightFoot
      RightFoot RightToeBase
   end

# File created by Blade
# Date/Time:  Tue Sep 23 19:22:32 2014
# Frame Rate: 120.000 fps
#------------------------------------------------------
:FULLY-SPECIFIED
:DEGREES
792
root 1.307041 34.160608 -1.599792 115.323091 2.287983 -31.216788
Spine -70.780485 -3.900430 28.567952
Head -17.686791 24.703844 38.064292
LeftShoulder -17.087449 34.683656 36.348802
LeftArm 69.784879 -71.432290 -83.509554
LeftForeArm 16.427549 -0.000000 90.604416
LeftHand 35.571542 -0.000000 17.407705
LeftHandThumb1 -26.253704 0.000000 33.147579
RightShoulder -40.225880 -41.717521 -1.317310
RightArm 30.089247 56.229418 66.814664
RightForeArm 82.795506 -0.000000 0.534880
RightHand 10.971152 -0.000000 16.090879
RightHandThumb1 -24.326973 -0.000000 -32.862282
LeftUpLeg -113.247440 29.518343 -3.883319
LeftLeg -7.398898 -0.000000 0.000000
LeftFoot 4.958928 2.433929 7.629303
LeftToeBase 1.823794 -0.000000 -0.000000
RightUpLeg 7.632946 4.574068 -31.887626
RightLeg 67.752006 -0.000000 -0.000000
RightFoot 48.342822 19.770586 0.133296
RightToeBase 32.045228 -0.000000 -0.000000
793
root 1.326984 34.167216 -1.593729 115.073329 2.134400 -31.226356
Spine -70.612872 -4.069815 28.608250
Head -17.465654 24.684459 38.053766
LeftShoulder -17.107705 34.703570 36.191908
LeftArm 68.929478 -71.250883 -82.963041
LeftForeArm 17.158628 -0.000000 90.494300
LeftHand 35.177763 -0.000000 17.758569
LeftHandThumb1 -26.253704 0.000000 33.147579
RightShoulder -40.240752 -41.625460 -1.271328
RightArm 30.017419 56.248421 66.848242
RightForeArm 82.653397 -0.000000 0.804381
RightHand 10.921678 -0.000000 15.942953
RightHandThumb1 -24.326973 -0.000000 -32.862282
LeftUpLeg -113.014354 29.511013 -3.837863
LeftLeg -7.167607 -0.000000 0.000000
LeftFoot 4.720429 2.396039 7.111513
LeftToeBase 1.943035 -0.000000 -0.000000
RightUpLeg 7.811527 4.511840 -31.913268
RightLeg 67.757413 -0.000000 -0.000000
RightFoot 48.420192 19.827588 0.253975
RightToeBase 32.009189 -0.000000 -0.000000
794
root 1.346287 34.177889 -1.584683 114.882290 2.006182 -31.312658
Spine -70.462644 -4.138503 28.631081
Head -17.295700 24.636126 37.994323
LeftShoulder -17.134988 34.768753 36.025333
LeftArm 68.295783 -71.025892 -82.658203
LeftForeArm 17.674671 -0.000000 90.320808
LeftHand 35.075341 -0.000000 17.885850
LeftHandThumb1 -26.253704 0.000000 33.147579
RightShoulder -40.292493 -41.519383 -1.210923
RightArm 29.931755 56.143290 66.753335
RightForeArm 82.650942 -0.000000 0.930279
RightHand 10.795401 -0.000000 15.899003
RightHandThumb1 -24.326973 -0.000000 -32.862282
LeftUpLeg -112.873094 29.565712 -3.864795
LeftLeg -6.929074 -0.000000 0.000000
LeftFoot 4.309776 2.308269 6.463241
LeftToeBase 2.681703 -0.000000 -0.000000
RightUpLeg 7.886101 4.509153 -31.937986
RightLeg 67.746124 -0.000000 -0.000000
RightFoot 48.524745 19.837740 0.455094
RightToeBase 31.988199 -0.000000 -0.000000
795
root 1.362123 34.195254 -1.576512 114.807712 2.001364 -31.547686
Spine -70.368949 -3.978026 28.624673
Head -17.022423 24.544331 37.962332
LeftShoulder -16.972602 34.839527 36.023911
LeftArm 67.634981 -70.764066 -82.413379
LeftForeArm 18.169319 -0.000000 90.165160
LeftHand 34.857900 0.000000 18.034506
LeftHandThumb1 -26.253704 0.000000 33.147579
RightShoulder -40.453196 -41.606274 -1.033832
RightArm 30.052365 55.990618 66.786693
RightForeArm 82.831063 -0.000000 0.842534
RightHand 10.695358 0.000000 15.970417
RightHandThumb1 -24.326973 -0.000000 -32.862282
LeftUpLeg -112.868928 29.842718 -3.846131
LeftLeg -6.688278 -0.000000 0.000000
LeftFoot 4.033653 2.266631 5.928810
LeftToeBase 3.010597 -0.000000 -0.000000
RightUpLeg 7.728016 4.609192 -31.917587
RightLeg 67.773740 -0.000000 -0.000000
RightFoot 48.535728 19.858001 0.520547
RightToeBase 31.956478 -0.000000 -0.000000
796
root 1.376072 34.213325 -1.566281 114.712085 1.964216 -31.752236
Spine -70.269108 -3.886784 28.704939
Head -16.731369 24.619899 37.902617
LeftShoulder -16.995404 34.965242 35.853261
LeftArm 67.101044 -70.532671 -82.156436
LeftForeArm 18.890686 0.000000 89.955324
LeftHand 34.489530 -0.000000 18.596231
LeftHandThumb1 -26.253704 0.000000 33.147579
RightShoulder -40.542143 -41.643232 -0.940293
RightArm 30.147091 55.704145 66.690766
RightForeArm 83.032145 -0.000000 0.675486
RightHand 10.641069 -0.000000 16.031302
RightHandThumb1 -24.326973 -0.000000 -32.862282
LeftUpLeg -112.836056 30.060588 -3.876303
LeftLeg -6.474389 -0.000000 0.000000
LeftFoot 3.782874 2.239497 5.274583
LeftToeBase 3.352200 -0.000000 -0.000000
RightUpLeg 7.651743 4.690744 -31.912980
RightLeg 67.744559 -0.000000 -0.000000
RightFoot 48.476093 19.884070 0.562589
RightToeBase 31.971381 -0.000000 -0.000000
797
root 1.390251 34.230320 -1.556548 114.608168 1.923298 -31.908435
Spine -70.205607 -3.840874 28.768410
Head -16.392684 24.585254 37.885849
LeftShoulder -16.967556 35.093648 35.801870
LeftArm 67.953421 -70.300847 -83.302903
LeftForeArm 19.481750 -0.000000 89.948029
LeftHand 33.370960 0.000000 20.745047
LeftHandThumb1 -26.253704 0.000000 33.147579
RightShoulder -40.554517 -41.737444 -0.896341
RightArm 30.097412 55.318370 66.416782
RightForeArm 83.350334 0.000000 0.340108
RightHand 10.539854 -0.000000 16.184460
RightHandThumb1 -24.326973 -0.000000 -32.862282
LeftUpLeg -112.820802 30.220514 -3.925000
LeftLeg -6.236974 -0.000000 0.000000
LeftFoot 3.527625 2.153661 4.421195
LeftToeBase 3.616435 -0.000000 -0.000000
RightUpLeg 7.638381 4.742817 -31.888845
RightLeg 67.673030 -0.000000 -0.000000
RightFoot 48.471863 19.964065 0.568040
RightToeBase 31.872035 -0.000000 -0.000000
798
root 1.404801 34.250335 -1.544886 114.530894 1.863273 -32.070452
Spine -70.192050 -3.811472 28.865937
Head -15.955464 24.574648 37.901215
LeftShoulder -16.924621 35.193334 35.795110
LeftArm 70.146109 -70.262594 -85.942842
LeftForeArm 20.811529 -0.000000 90.101329
LeftHand 32.992233 -0.000000 20.590453
LeftHandThumb1 -26.253704 0.000000 33.147579
RightShoulder -40.476391 -41.871836 -0.897256
RightArm 30.102214 55.015373 66.200640
RightForeArm 83.711336 -0.000000 0.003738
RightHand 10.363370 -0.000000 16.392594
RightHandThumb1 -24.326973 -0.000000 -32.862282
LeftUpLeg -112.841482 30.338949 -4.058461
LeftLeg -6.016618 -0.000000 0.000000
LeftFoot 3.316000 2.003504 3.942417
LeftToeBase 3.860204 -0.000000 -0.000000
RightUpLeg 7.605641 4.773681 -31.891060
RightLeg 67.628886 -0.000000 -0.000000
RightFoot 48.459157 20.123095 0.528010
RightToeBase 31.694256 -0.000000 -0.000000
799
root 1.416265 34.267858 -1.534682 114.341011 1.785960 -32.159654
Spine -70.104187 -3.916264 29.035425
Head -15.518223 24.589515 37.906440
LeftShoulder -16.946822 35.302891 35.738002
LeftArm 72.439094 -70.221384 -88.721393
LeftForeArm 21.752920 -0.000000 90.217800
LeftHand 33.494936 -0.000000 18.707930
LeftHandThumb1 -26.253704 0.000000 33.147579
RightShoulder -40.391745 -42.016988 -0.905097
RightArm 30.290736 54.750542 66.102973
RightForeArm 83.949627 0.000000 -0.391239
RightHand 10.269586 -0.000000 16.579651
RightHandThumb1 -24.326973 -0.000000 -32.862282
LeftUpLeg -112.680541 30.419934 -4.038333
LeftLeg -5.811798 -0.000000 0.000000
LeftFoot 3.144006 1.855325 3.619883
LeftToeBase 4.080132 -0.000000 -0.000000
RightUpLeg 7.768198 4.799467 -31.870703
RightLeg 67.557112 -0.000000 -0.000000
RightFoot 48.352560 20.091223 0.567664
RightToeBase 31.918186 -0.000000 -0.000000
800
root 1.421255 34.293270 -1.525906 114.269400 1.830065 -32.411896
Spine -70.060509 -3.776495 29.032718
Head -15.088173 24.408484 38.014395
LeftShoulder -16.606818 35.199262 36.110425
LeftArm 72.949196 -70.075119 -89.839291
LeftForeArm 22.171729 0.000000 90.274612
LeftHand 33.744451 -0.000000 18.072337
LeftHandThumb1 -26.253704 0.000000 33.147579
RightShoulder -40.405216 -42.188099 -0.823035
RightArm 30.192735 54.433862 65.784088
RightForeArm 84.476704 -0.000000 -0.861387
RightHand 10.099004 -0.000000 17.022794
RightHandThumb1 -24.326973 -0.000000 -32.862282
LeftUpLeg -112.710757 30.706797 -4.087584
LeftLeg -5.611234 -0.000000 0.000000
LeftFoot 2.993636 1.686099 3.126700
LeftToeBase 4.328176 -0.000000 -0.000000
RightUpLeg 7.657701 4.919940 -31.813949
RightLeg 67.574745 -0.000000 -0.000000
RightFoot 48.342293 20.024908 0.516404
RightToeBase 31.921612 -0.000000 -0.000000
801
root 1.424887 34.317238 -1.516025 114.124960 1.835940 -32.632418
Spine -69.969614 -3.731505 29.107489
Head -14.673129 24.277733 38.049184
LeftShoulder -16.488197 35.247792 36.256320
LeftArm 73.356268 -69.850759 -90.703014
LeftForeArm 22.025808 0.000000 90.310358
LeftHand 33.910451 -0.000000 18.245327
LeftHandThumb1 -26.253704 0.000000 33.147579
RightShoulder -40.330532 -42.347156 -0.834980
RightArm 30.256572 54.352591 65.764346
RightForeArm 84.590947 0.000000 -1.097289
RightHand 9.960165 -0.000000 17.321276
RightHandThumb1 -24.326973 -0.000000 -32.862282
LeftUpLeg -112.613296 30.974651 -4.083678
LeftLeg -5.430569 -0.000000 0.000000
LeftFoot 2.802919 1.530771 2.565791
LeftToeBase 4.688530 -0.000000 -0.000000
RightUpLeg 7.663676 5.020686 -31.785003
RightLeg 67.599438 -0.000000 -0.000000
RightFoot 48.231346 19.956663 0.304049
RightToeBase 31.866869 -0.000000 -0.000000
